<svg id="burger" xmlns="http://www.w3.org/2000/svg" width="30.469" height="24.625" viewBox="0 0 30.469 24.625">
  <defs>
    <style>
      .cls-1 {
        fill: #4fc3f7;
        fill-rule: evenodd;
      }
    </style>
  </defs>
  <path id="Прямоугольник_588" data-name="Прямоугольник 588" class="cls-1" d="M129.985,126.853h26.953a1.758,1.758,0,1,1,0,3.516H129.985A1.758,1.758,0,0,1,129.985,126.853Z" transform="translate(-128.219 -126.844)"/>
  <path id="Прямоугольник_588_копия" data-name="Прямоугольник 588 копия" class="cls-1" d="M129.985,137.4h26.953a1.758,1.758,0,1,1,0,3.516H129.985A1.758,1.758,0,1,1,129.985,137.4Z" transform="translate(-128.219 -126.844)"/>
  <path id="Прямоугольник_588_копия_2" data-name="Прямоугольник 588 копия 2" class="cls-1" d="M129.985,147.947h26.953a1.758,1.758,0,1,1,0,3.515H129.985A1.758,1.758,0,1,1,129.985,147.947Z" transform="translate(-128.219 -126.844)"/>
</svg>
